PathFileType	4	(X/Y/Z)	63_2_74_p1_0-348_filt_butterworth.trc
DataRate	CameraRate	NumFrames	NumMarkers	Units	OrigDataRate	OrigDataStartFrame	OrigNumFrames
53.0	53.0	6	27	m	53.0	43	348
Frame#	Time	RHip			RKnee			RAnkle			RBigToe			RSmallToe			RHeel			LHip			LKnee			LAnkle			LBigToe			LSmallToe			LHeel			Neck			Head			Nose			RShoulder			RElbow			RWrist			RThumb			RIndex			RPinky			LShoulder			LElbow			LWrist			LThumb			LIndex			LPinky			
		X1	Y1	Z1	X2	Y2	Z2	X3	Y3	Z3	X4	Y4	Z4	X5	Y5	Z5	X6	Y6	Z6	X7	Y7	Z7	X8	Y8	Z8	X9	Y9	Z9	X10	Y10	Z10	X11	Y11	Z11	X12	Y12	Z12	X13	Y13	Z13	X14	Y14	Z14	X15	Y15	Z15	X16	Y16	Z16	X17	Y17	Z17	X18	Y18	Z18	X19	Y19	Z19	X20	Y20	Z20	X21	Y21	Z21	X22	Y22	Z22	X23	Y23	Z23	X24	Y24	Z24	X25	Y25	Z25	X26	Y26	Z26	X27	Y27	Z27	
43	0.8113207547169812	0.29187268437050234	0.5730373862831175	0.6860709060719941	0.33233872486928195	0.7304864570811006	1.1495614485970946	0.3354762922388426	0.8325668833007456	1.5700788463146638	0.28606141731552537	0.630521500577237	1.6136789992898466	0.3631681398673361	0.6501104079388559	1.6004871354997265	0.32115447206727765	0.951909209005651	1.629821045886389	0.07826531203457272	0.5896399279491732	0.696809417935315	0.09896329365301426	0.7295093502546675	1.1612258995041258	0.12974921001778753	0.8737288278953168	1.5727579780227026	0.13481530301585842	0.6415302612934026	1.5979763986002418	0.08380531083677899	0.7283050758966161	1.6060384487043076	0.1492611388771778	0.9277640367202915	1.6115292469171512	0.15878501014831026	0.4064617249531717	0.12867874285109696	0.11205570172418655	0.28280940729963244	-0.08598903411674769	0.12521786125338807	0.25028779914904237	0.04529222154494701	0.32164108212564135	0.37551955516765556	0.23355671759414093	0.370663352955352	0.4553443290685283	0.4908041968506917	0.26414255523667257	0.3123007117634664	0.7009739353484014	0.15831870901952685	0.2767931982217597	0.7664685823276984	0.14023758948045473	0.2848844481130018	0.7862011441037395	0.16196434471153467	0.2926136244019829	0.808270426874613	0.01328773852094739	0.40682688796109	0.24425534763502663	-0.013292775737830229	0.4420004249296746	0.514892246354066	0.08860740865388113	0.3408906041022766	0.7093062770198149	0.19058094688397795	0.31031693336775446	0.7621256513093567	0.19236192729538776	0.30426513819834344	0.7917347380562938	0.16235500021192686	0.3341216428717366	0.8214015403915859
44	0.8301886792452831	0.28999184662250016	0.5725763100820499	0.6866497049360794	0.3324637957965036	0.7298461132143825	1.1477640029378635	0.3354848728197709	0.8326775782037643	1.570071606261536	0.28606192867013125	0.6310459307217653	1.6152664051052605	0.36297563327049703	0.6508329186257987	1.6021113366233046	0.3211715398051713	0.951870188803405	1.6297404223199365	0.0770770071932439	0.5890564735732886	0.6970366778118351	0.09900005502692855	0.729472315029774	1.1611436301019877	0.1297493258525241	0.8737566325781597	1.5727703276735268	0.13477445667794974	0.6414703449396897	1.5975092427269217	0.08380562152538737	0.7283742038984173	1.6060441905723006	0.1490713736962823	0.9281057360088164	1.6111907783356791	0.15879217707135568	0.4065240878259095	0.12868099964697227	0.11200855319757885	0.2828429475647958	-0.0860024114569829	0.12520012371069195	0.2503691472860629	0.04528451388726503	0.32174382328198736	0.3759758785687857	0.2335406596908826	0.370570330897837	0.4556454863661552	0.49031188804018755	0.2646447592880256	0.3102340579503095	0.6988083555250867	0.167004746259235	0.2676170712197855	0.7639224178194057	0.14869644994648987	0.2696738000807489	0.7841098727080302	0.16413124897487263	0.27302985988596273	0.8055093682724518	0.013266932071354227	0.40688603556802555	0.24423865928010924	-0.015227284729882247	0.4407019745121926	0.5147294858049211	0.08696417004314036	0.3377738580504255	0.7105657415114619	0.19402599119450503	0.29928667867596015	0.7607450601625535	0.1946082191927539	0.2913525720263352	0.7917783660331092	0.15863044712524804	0.3282632289092875	0.8248550445088725
45	0.8490566037735849	0.28960018477177163	0.5721567933043415	0.6868348246737941	0.3326136705593281	0.7292865971950135	1.146562127177419	0.33550489566162156	0.8326621320943052	1.5701106779041216	0.2860402862363982	0.6320563779014967	1.616582380758538	0.363012061684898	0.6512987380045722	1.603227170165029	0.3211910188562864	0.9518314715232368	1.6296506493363296	0.07688706165874039	0.588895477839457	0.6980302846838883	0.09902927711904283	0.729463085861093	1.1611557307490037	0.1297580801932422	0.8737738584717107	1.5727921506571234	0.1347878914373348	0.6416078998938287	1.5980640257348628	0.08377246779293596	0.7285371946593004	1.6061226763381005	0.14780497016294034	0.9273968869746023	1.6109673152888446	0.15880632956846025	0.4065670511136177	0.1286891661080181	0.11197416620900741	0.2828756896885369	-0.08601178836080184	0.12518564829218082	0.2504465252876082	0.045281749587986864	0.32183856971468394	0.3766021988227872	0.23352163863854733	0.3705318925330641	0.4553811726993307	0.48864336440850287	0.2657403015305136	0.3087299270386079	0.6958024445323894	0.17466911760406773	0.26068340448770666	0.7621873388202177	0.15778654571473044	0.25203352375237176	0.7815857919622545	0.16753002905877207	0.257631662108821	0.8032266982075884	0.013257389441488724	0.4069842229634123	0.2442098763931996	-0.015786280128671525	0.44177646052887026	0.514367254949335	0.08580348589638745	0.33723455577039957	0.7119256382145738	0.19581863702370975	0.29157140269209564	0.760259117017019	0.19539802515937144	0.2859889042663587	0.7918574824330038	0.15537659889543035	0.32451831143534515	0.8274941576087587
46	0.8679245283018868	0.28970987016188937	0.5716783319403983	0.6861657530516598	0.33261238476959454	0.7287538936379673	1.1462715224520295	0.3355478329039921	0.8325311252248219	1.5704770966526536	0.2860148240866729	0.633192483811421	1.617199658150151	0.36326034603695	0.6514906987263087	1.6035913333615197	0.32119244655044926	0.9518338696155305	1.6296963280736319	0.07714598360466485	0.5889223968102524	0.699521088703999	0.09903395328437892	0.7294718149963545	1.1612148129742006	0.12977319677815655	0.873775585180849	1.5728581070690713	0.134777593070649	0.6416557394583473	1.5990174955142973	0.08372631590756534	0.7286943628487339	1.6062235447651265	0.1462485326985881	0.9261912855095753	1.6109358892005536	0.15880451881847124	0.4065588741345506	0.12868140707598646	0.11194995970761018	0.28292954235451934	-0.08604366974056799	0.12517833853810265	0.2504809201756348	0.045287111437094185	0.32196269678380035	0.3770644246545161	0.23348397289971262	0.37058770797604473	0.45500085774149474	0.48651379613855567	0.26749634006731443	0.3082401849015207	0.6937439765885249	0.17945653945296083	0.25461008675739044	0.7619444731315215	0.16429411785534137	0.23701108621030464	0.7804602822398952	0.17065301490281032	0.242274174539588	0.801367048694082	0.013249581531327248	0.4070123085630878	0.24418697897713695	-0.014853405547993661	0.44536450769951413	0.5140222087361103	0.08554963158321431	0.33731262864094336	0.7136846653396653	0.19593962396101589	0.29021166761452966	0.7612612934477434	0.19572251763517573	0.28649437948525736	0.7926908026814452	0.15411236018072416	0.32347595174770805	0.8302336643254806
47	0.8867924528301887	0.28969420037132304	0.5712493673563667	0.6851951973959539	0.33238882337068454	0.7278722169765092	1.1463074436878036	0.33565196624905946	0.8322683600551434	1.5715779957879157	0.2860008291267229	0.6341066914001152	1.617389891662003	0.36353933542784334	0.6515341724359157	1.6035911842344888	0.32117795191702625	0.9518493743375023	1.6297844118146916	0.07732634771923798	0.5889718310186041	0.7006048746684912	0.09902146377016856	0.7294819917951283	1.161250897993372	0.129786340646628	0.8737623229232633	1.5729776565702962	0.13477221716474674	0.64154889236463	1.5995155195003068	0.08370568744154146	0.7287376444039049	1.6062678465035631	0.14529081819981726	0.925287845377014	1.6110162932238425	0.15878462725267722	0.4065100292308227	0.12865858765202365	0.11194851402862321	0.283007385940035	-0.08609998794424298	0.12517533293392782	0.2504806270311731	0.04529140568441105	0.32204555670370116	0.37716277565275713	0.2333961497789582	0.3707239528799742	0.45491141864729917	0.48502062620717135	0.2695337983517533	0.30840000555776526	0.6931795325323646	0.18033351978231982	0.24544752907753145	0.7628192199232906	0.16764635926215155	0.22529905619990903	0.781475688076027	0.17333959211257882	0.22709812645309443	0.799617861241052	0.013227970336361316	0.4068852388753333	0.24416601616009537	-0.013407007925776426	0.45008668242532873	0.5137186083710475	0.08570077092191435	0.337247747521248	0.715223769618692	0.19333977608974742	0.2873770881570237	0.7627897161897712	0.1946881807311587	0.28522748918993845	0.7941628230920166	0.15426473253767234	0.3247505485088958	0.8345943736181655
48	0.9056603773584906	0.2895408693030427	0.5710677406133078	0.6846770471740304	0.3320170933282521	0.72689351049592	1.1459874650296629	0.3357978765246609	0.8319643911162405	1.5730932330585752	0.28600168820495003	0.6346715683226011	1.6174963849111423	0.3636711326446486	0.6515416322493548	1.6035484883697269	0.32116283205325835	0.9518762165027765	1.6298297739995267	0.07729075588459228	0.5890251309249281	0.700603830645317	0.09900737398386289	0.7294881358811406	1.1612559240748284	0.1297923908812757	0.8737515703288354	1.573100134352401	0.13492542494807766	0.6416835887420457	1.5995638738406945	0.08371471413152809	0.7286875304257787	1.6062513087828123	0.14499461372620082	0.9249583904837128	1.611137499144576	0.15875797823909996	0.40646267506105166	0.12863800251102875	0.11199766333272153	0.28307005864022167	-0.08612597044072527	0.12518252695730636	0.25043943827224385	0.0452958772076587	0.32201995115451926	0.37702729801123636	0.23328078128653262	0.3709690606876699	0.45524447928227774	0.4847625889258008	0.27068038799560856	0.30834760146579454	0.6927188640311941	0.1782918821466007	0.233804572990494	0.7637072327828297	0.16967522388780598	0.21496212152956765	0.7834867395829322	0.1755381245955876	0.21624166233594405	0.798162679235328	0.013188725483782233	0.4066511919006237	0.24414378444745255	-0.012467670797341667	0.45342296419305356	0.5135056767936332	0.08580558791247593	0.3371124097199062	0.716825979145427	0.18799956898049316	0.2761813796049326	0.7635248691457682	0.19119317607866407	0.276752414912815	0.7954055593278476	0.1541490215908225	0.3255991889518603	0.8398461882456514
